<svg xmlns="http://www.w3.org/2000/svg" width="37.177" height="42.488" viewBox="0 0 37.177 42.488">
  <path id="Icon_metro-attachment" data-name="Icon metro-attachment" d="M29.833,15.5,27.138,12.8,13.662,26.278a5.717,5.717,0,0,0,8.086,8.084L37.92,18.193A9.528,9.528,0,0,0,24.444,4.72L7.464,21.7l-.036.035a13.289,13.289,0,0,0,18.8,18.792l.034-.036h0L37.848,28.9l-2.7-2.694L23.562,37.794c-.012.011-.023.024-.035.035a9.477,9.477,0,0,1-13.4-13.4l.037-.035,0,0L27.139,7.414A5.717,5.717,0,1,1,35.225,15.5L19.053,31.667a1.905,1.905,0,0,1-2.7-2.694L29.834,15.5Z" transform="translate(-3.535 -1.928)" fill="#24b151"/>
</svg>
