<svg xmlns="http://www.w3.org/2000/svg" width="47.135" height="45.626" viewBox="0 0 47.135 45.626">
  <g id="C_-_11_x2C__Stamp_x2C__Approval_x2C__authority_x2C__legal_x2C__mark_x2C__rubber_x2C__seal" transform="translate(-35.783 -42.831)">
    <g id="Group_212" data-name="Group 212" transform="translate(35.783 42.831)">
      <path id="Path_2841" data-name="Path 2841" d="M190.508,65.58c-.856,3.307-1.739,6.718-2.274,9.248h6.751v-13.1a.5.5,0,1,1,1,0v13.1h6.751c-.535-2.528-1.418-5.938-2.273-9.244-.965-3.73-1.963-7.587-2.488-10.266a.5.5,0,0,1,.273-.548,6.245,6.245,0,0,0,3.553-5.653,6.317,6.317,0,0,0-12.635,0,6.243,6.243,0,0,0,3.554,5.653.5.5,0,0,1,.273.548C192.471,58,191.473,61.852,190.508,65.58Zm5.01-19.958c.032,0,3.234.255,3.576,4.471a.5.5,0,0,1-.459.54l-.041,0a.5.5,0,0,1-.5-.461c-.273-3.362-2.617-3.55-2.641-3.552a.5.5,0,0,1,.064-1Z" transform="translate(-171.919 -42.831)" fill="#b78f02"/>
      <path id="Path_2842" data-name="Path 2842" d="M126.3,358.924h4.377v-3.87a3.884,3.884,0,0,0-3.89-3.869H100.439a3.884,3.884,0,0,0-3.89,3.869v3.87H126.3Z" transform="translate(-90.046 -318.185)" fill="#b78f02"/>
      <path id="Path_2843" data-name="Path 2843" d="M82.416,435.748H71.535v-2.882H47.166v2.882H36.284a.5.5,0,1,0,0,1H82.416a.5.5,0,1,0,0-1Z" transform="translate(-35.783 -391.125)" fill="#b78f02"/>
    </g>
  </g>
</svg>
