<?xml version="1.0" ?>
<!DOCTYPE svg  PUBLIC '-//W3C//DTD SVG 1.1//EN'  'http://www.w3.org/Graphics/SVG/1.1/DTD/svg11.dtd'>
<!-- Uploaded to: SVG Repo, www.svgrepo.com, Generator: SVG Repo Mixer Tools -->
<svg width="800px" height="800px" viewBox="0 0 48 48" enable-background="new 0 0 48 48" id="_x3C_Layer_x3E_" version="1.1" xml:space="preserve" xmlns="http://www.w3.org/2000/svg" xmlns:xlink="http://www.w3.org/1999/xlink">
<g id="message_x2C__chat_x2C__correspondence">
<path d="M2.5,9.5v23c0,1.104,0.896,2,2,2h5v10.349c0,0.495,0.642,0.689,0.916,0.277L17.5,34.5h26   c1.104,0,2-0.896,2-2v-23c0-1.104-0.896-2-2-2h-39C3.396,7.5,2.5,8.396,2.5,9.5z" fill="#FFE57F" id="XMLID_4_"/>
<path d="M10.003,45.85c-0.097,0-0.196-0.015-0.293-0.044C9.286,45.677,9,45.292,9,44.849V35H4.5   C3.122,35,2,33.878,2,32.5v-23C2,8.122,3.122,7,4.5,7h39C44.878,7,46,8.122,46,9.5v23c0,1.378-1.122,2.5-2.5,2.5h-24   c-0.276,0-0.5-0.224-0.5-0.5s0.224-0.5,0.5-0.5h24c0.827,0,1.5-0.673,1.5-1.5v-23C45,8.673,44.327,8,43.5,8h-39   C3.673,8,3,8.673,3,9.5v23C3,33.327,3.673,34,4.5,34h5c0.276,0,0.5,0.224,0.5,0.5v10.349l7.084-10.626   c0.152-0.23,0.462-0.292,0.693-0.139c0.23,0.153,0.292,0.463,0.139,0.693l-7.084,10.626C10.642,45.688,10.331,45.85,10.003,45.85z" fill="#0277BD"/>
<path d="M3.5,33C3.224,33,3,32.776,3,32.5v-23C3,8.673,3.673,8,4.5,8h39C43.776,8,44,8.224,44,8.5S43.776,9,43.5,9   h-39C4.224,9,4,9.224,4,9.5v23C4,32.776,3.776,33,3.5,33z" fill="#FFF8E1"/>
<g>
<path d="M37.5,24h-5c-0.276,0-0.5-0.224-0.5-0.5s0.224-0.5,0.5-0.5h5c0.276,0,0.5,0.224,0.5,0.5S37.776,24,37.5,24    z" fill="#FFF8E1"/>
<path d="M37.5,18h-12c-0.276,0-0.5-0.224-0.5-0.5s0.224-0.5,0.5-0.5h12c0.276,0,0.5,0.224,0.5,0.5    S37.776,18,37.5,18z" fill="#FFF8E1"/>
<path d="M23.5,18h-13c-0.276,0-0.5-0.224-0.5-0.5s0.224-0.5,0.5-0.5h13c0.276,0,0.5,0.224,0.5,0.5    S23.776,18,23.5,18z" fill="#FFF8E1"/>
<path d="M37.5,21h-27c-0.276,0-0.5-0.224-0.5-0.5s0.224-0.5,0.5-0.5h27c0.276,0,0.5,0.224,0.5,0.5    S37.776,21,37.5,21z" fill="#FFF8E1"/>
<path d="M30.5,24h-20c-0.276,0-0.5-0.224-0.5-0.5s0.224-0.5,0.5-0.5h20c0.276,0,0.5,0.224,0.5,0.5    S30.776,24,30.5,24z" fill="#FFF8E1"/>
<path d="M27.5,27h-17c-0.276,0-0.5-0.224-0.5-0.5s0.224-0.5,0.5-0.5h17c0.276,0,0.5,0.224,0.5,0.5    S27.776,27,27.5,27z" fill="#FFF8E1"/>
</g>
<g>
<path d="M37.5,23h-5c-0.276,0-0.5-0.224-0.5-0.5s0.224-0.5,0.5-0.5h5c0.276,0,0.5,0.224,0.5,0.5S37.776,23,37.5,23    z" fill="#0277BD"/>
<path d="M37.5,17h-12c-0.276,0-0.5-0.224-0.5-0.5s0.224-0.5,0.5-0.5h12c0.276,0,0.5,0.224,0.5,0.5    S37.776,17,37.5,17z" fill="#0277BD"/>
<path d="M23.5,17h-13c-0.276,0-0.5-0.224-0.5-0.5s0.224-0.5,0.5-0.5h13c0.276,0,0.5,0.224,0.5,0.5    S23.776,17,23.5,17z" fill="#0277BD"/>
<path d="M37.5,20h-27c-0.276,0-0.5-0.224-0.5-0.5s0.224-0.5,0.5-0.5h27c0.276,0,0.5,0.224,0.5,0.5    S37.776,20,37.5,20z" fill="#0277BD"/>
<path d="M30.5,23h-20c-0.276,0-0.5-0.224-0.5-0.5s0.224-0.5,0.5-0.5h20c0.276,0,0.5,0.224,0.5,0.5    S30.776,23,30.5,23z" fill="#0277BD"/>
<path d="M27.5,26h-17c-0.276,0-0.5-0.224-0.5-0.5s0.224-0.5,0.5-0.5h17c0.276,0,0.5,0.224,0.5,0.5    S27.776,26,27.5,26z" fill="#0277BD"/>
</g>
</g>
</svg>