<svg id="Group_96" data-name="Group 96" xmlns="http://www.w3.org/2000/svg" width="44.206" height="44.88" viewBox="0 0 44.206 44.88">
  <path id="Path_1843" data-name="Path 1843" d="M20.995,18.625a8.875,8.875,0,0,0-6.253,2.587.468.468,0,0,0-.1.517,14.968,14.968,0,0,1,1.183,5.831,4.358,4.358,0,0,1-.015.444.47.47,0,0,0,.47.5H28.989a.941.941,0,0,0,.941-.941A8.947,8.947,0,0,0,20.995,18.625Z" transform="translate(12.395 16.379)" fill="#b78f02"/>
  <path id="Path_1844" data-name="Path 1844" d="M16.033,23.741a9.157,9.157,0,1,0-4.558,1.213,9.492,9.492,0,0,0,4.558-1.213ZM6.362,12.83a12.5,12.5,0,0,0,10.831,2.178c.011.141.043.275.043.418a5.761,5.761,0,1,1-11.523,0,5.672,5.672,0,0,1,.648-2.59Z" transform="translate(1.574 5.818)" fill="#b78f02"/>
  <path id="Path_1845" data-name="Path 1845" d="M25.645,29.322a12.7,12.7,0,1,0-25.395,0,.941.941,0,0,0,.941.941H24.7A.941.941,0,0,0,25.645,29.322ZM11.537,21.777a1.411,1.411,0,0,1,2.822,0v2.735a1.411,1.411,0,1,1-2.822,0Z" transform="translate(-0.25 14.617)" fill="#b78f02"/>
  <circle id="Ellipse_29" data-name="Ellipse 29" cx="6.138" cy="6.138" r="6.138" transform="translate(27.252 21.959)" fill="#b78f02"/>
  <path id="Path_1846" data-name="Path 1846" d="M33.867,17.7l-4.116-4.116a9.313,9.313,0,0,0,.9-3.96,9.507,9.507,0,1,0-3.185,7l3.736,3.736a1.881,1.881,0,1,0,2.66-2.66ZM21.251,15.269a5.643,5.643,0,1,1,5.643-5.643A5.643,5.643,0,0,1,21.251,15.269Z" transform="translate(9.787 -0.017)" fill="#b78f02"/>
</svg>
