<svg xmlns="http://www.w3.org/2000/svg" width="31.916" height="32.31" viewBox="0 0 31.916 32.31">
  <g id="D_-_29_x2C__connection_x2C__meeting_x2C__office_x2C__communication" transform="translate(-43.099 -40.469)">
    <g id="Group_313" data-name="Group 313" transform="translate(43.099 40.469)">
      <path id="Path_4014" data-name="Path 4014" d="M219.048,274.742a3.161,3.161,0,1,0,3.161,3.161A3.164,3.164,0,0,0,219.048,274.742Z" transform="translate(-202.936 -257.182)" fill="#b78f02"/>
      <path id="Path_4015" data-name="Path 4015" d="M171.922,396.012a.351.351,0,0,1-.364-.009l-2.6-1.67-4.037,1.249v4.537h2.415V397.69a.351.351,0,1,1,.7,0v2.427h7.735l-.009-2.457a.351.351,0,0,1,.35-.353h0a.351.351,0,0,1,.351.35l.009,2.46h2.1v-4.543l-3.713-1.244Z" transform="translate(-155.79 -367.807)" fill="#b78f02"/>
      <path id="Path_4016" data-name="Path 4016" d="M53.952,165.844l-.009-2.457a.351.351,0,0,1,.35-.353h0a.351.351,0,0,1,.351.35l.009,2.46h2.1V161.3l-3.713-1.244-2.94,1.681a.351.351,0,0,1-.364-.009l-2.6-1.671L43.1,161.307v4.537h2.415v-2.427a.351.351,0,0,1,.7,0v2.427h7.735Z" transform="translate(-43.099 -151.093)" fill="#b78f02"/>
      <path id="Path_4017" data-name="Path 4017" d="M340.87,46.791a3.161,3.161,0,1,0-3.161-3.161A3.164,3.164,0,0,0,340.87,46.791Z" transform="translate(-315.627 -40.469)" fill="#b78f02"/>
      <path id="Path_4018" data-name="Path 4018" d="M97.225,46.791a3.161,3.161,0,1,0-3.161-3.161A3.164,3.164,0,0,0,97.225,46.791Z" transform="translate(-90.244 -40.469)" fill="#b78f02"/>
      <path id="Path_4019" data-name="Path 4019" d="M296.685,160.057l-2.94,1.681a.351.351,0,0,1-.364-.009l-2.6-1.671-1.792.554a.352.352,0,0,1-.159.049l-2.086.645v4.537h2.415v-2.427a.351.351,0,0,1,.7,0v2.427H297.6l-.009-2.457a.351.351,0,0,1,.35-.353h0a.351.351,0,0,1,.351.35l.009,2.46h2.1V161.3Z" transform="translate(-268.482 -151.093)" fill="#b78f02"/>
      <path id="Path_4020" data-name="Path 4020" d="M144.563,159.942a.351.351,0,0,1-.351-.351v-5.147a.351.351,0,0,1,.247-.336l1.547-.479a9.092,9.092,0,0,0-3.523-.712,8.991,8.991,0,0,0-3.358.643l1.643.55a.351.351,0,0,1,.24.333v5.147a.351.351,0,0,1-.351.351h-7a9.107,9.107,0,0,0-.23,2.037,9.454,9.454,0,0,0,5.274,8.531.351.351,0,0,1,.112.082l.961-.3a.351.351,0,0,1,.294.04l2.558,1.644,2.891-1.653a.351.351,0,0,1,.286-.028l.914.306a.347.347,0,0,1,.125-.1c2.948-1.3,4.707-4.488,4.707-8.529a9.112,9.112,0,0,0-.23-2.037h-6.751Zm-1.8,9.131a3.863,3.863,0,1,1,3.863-3.863A3.868,3.868,0,0,1,142.764,169.073Z" transform="translate(-126.652 -144.489)" fill="#b78f02"/>
    </g>
  </g>
</svg>
