<svg xmlns="http://www.w3.org/2000/svg" width="33.925" height="26.08" viewBox="0 0 33.925 26.08">
  <g id="Icon_ionic-ios-exit" data-name="Icon ionic-ios-exit" transform="translate(-3.375 -6.75)">
    <path id="Path_1988" data-name="Path 1988" d="M10.125,10.012v8.726H24.8l-3.849-3.906a1.061,1.061,0,1,1,1.509-1.492l5.627,5.709a1.078,1.078,0,0,1,.3.742,1.012,1.012,0,0,1-.082.408,1.133,1.133,0,0,1-.22.334h0L22.455,26.24a1.061,1.061,0,1,1-1.509-1.492L24.8,20.842H10.125v8.726a3.272,3.272,0,0,0,3.262,3.262H32.959a3.272,3.272,0,0,0,3.262-3.262V10.012A3.272,3.272,0,0,0,32.959,6.75H13.387A3.272,3.272,0,0,0,10.125,10.012Z" transform="translate(1.079 0)" fill="#24b151"/>
    <path id="Path_1989" data-name="Path 1989" d="M4.435,17.086a1.06,1.06,0,1,0,0,2.12H11.2v-2.12Z" transform="translate(0 1.652)" fill="#24b151"/>
  </g>
</svg>
