<svg xmlns="http://www.w3.org/2000/svg" width="27.311" height="27.311" viewBox="0 0 27.311 27.311">
  <path id="Icon_awesome-fax" data-name="Icon awesome-fax" d="M3.414,6.828H1.707A1.707,1.707,0,0,0,0,8.535V25.6a1.707,1.707,0,0,0,1.707,1.707H3.414A1.707,1.707,0,0,0,5.121,25.6V8.535A1.707,1.707,0,0,0,3.414,6.828ZM25.6,8.535V4.121a1.708,1.708,0,0,0-.5-1.207L22.69.5A1.707,1.707,0,0,0,21.483,0H8.535A1.707,1.707,0,0,0,6.828,1.707V25.6a1.707,1.707,0,0,0,1.707,1.707H25.6A1.707,1.707,0,0,0,27.311,25.6V10.241A1.707,1.707,0,0,0,25.6,8.535ZM15.362,23.043a.853.853,0,0,1-.853.853H12.8a.853.853,0,0,1-.853-.853V21.336a.853.853,0,0,1,.853-.853h1.707a.853.853,0,0,1,.853.853Zm0-6.828a.853.853,0,0,1-.853.853H12.8a.853.853,0,0,1-.853-.853V14.509a.853.853,0,0,1,.853-.853h1.707a.853.853,0,0,1,.853.853Zm6.828,6.828a.853.853,0,0,1-.853.853H19.629a.853.853,0,0,1-.853-.853V21.336a.853.853,0,0,1,.853-.853h1.707a.853.853,0,0,1,.853.853Zm0-6.828a.853.853,0,0,1-.853.853H19.629a.853.853,0,0,1-.853-.853V14.509a.853.853,0,0,1,.853-.853h1.707a.853.853,0,0,1,.853.853Zm.853-5.974H9.388V2.56H20.483V4.267a.853.853,0,0,0,.853.853h1.707Z" fill="#24b151"/>
</svg>
