<!DOCTYPE svg PUBLIC "-//W3C//DTD SVG 1.1//EN" "http://www.w3.org/Graphics/SVG/1.1/DTD/svg11.dtd">
<!-- Uploaded to: SVG Repo, www.svgrepo.com, Transformed by: SVG Repo Mixer Tools -->
<svg fill="#b78f02" xmlns="http://www.w3.org/2000/svg" width="196px" height="196px" viewBox="0 0 52 52" enable-background="new 0 0 52 52" xml:space="preserve" transform="rotate(270)" stroke="#b78f02" stroke-width="0.0005200000000000001">
<g id="SVGRepo_bgCarrier" stroke-width="0"/>
<g id="SVGRepo_tracerCarrier" stroke-linecap="round" stroke-linejoin="round" stroke="#CCCCCC" stroke-width="0.8320000000000001"/>
<g id="SVGRepo_iconCarrier"> <path d="M23.1,23H10.8c-0.7,0-1.4,0.6-1.4,1.3v10.5H5.3c-0.7,0-1.4,0.7-1.4,1.4v10c0,0.7,0.7,1.4,1.4,1.4H19 c0.7,0,1.4-0.7,1.4-1.4v-10c0-0.7-0.7-1.4-1.4-1.4h-4.1v-6.4h21.9v6.4h-4.1c-0.7,0-1.4,0.7-1.4,1.4v10c0,0.7,0.7,1.4,1.4,1.4h13.7 c0.7,0,1.3-0.7,1.3-1.4v-10c0-0.7-0.6-1.4-1.3-1.4h-4.2V24.3c0-0.7-0.7-1.3-1.4-1.3H28.6v-6.4h4.1c0.7,0,1.3-0.7,1.3-1.4v-10 c0-0.7-0.6-1.4-1.3-1.4H19c-0.7,0-1.4,0.7-1.4,1.4v10c0,0.7,0.7,1.4,1.4,1.4h4.2V23z"/> </g>
</svg>