<svg xmlns="http://www.w3.org/2000/svg" width="30.857" height="24" viewBox="0 0 30.857 24">
  <path id="Icon_awesome-id-card" data-name="Icon awesome-id-card" d="M28.286,2.25H2.571A2.572,2.572,0,0,0,0,4.821v.857H30.857V4.821A2.572,2.572,0,0,0,28.286,2.25ZM0,23.679A2.572,2.572,0,0,0,2.571,26.25H28.286a2.572,2.572,0,0,0,2.571-2.571V7.393H0ZM18.857,11.25a.43.43,0,0,1,.429-.429H27a.43.43,0,0,1,.429.429v.857a.43.43,0,0,1-.429.429H19.286a.43.43,0,0,1-.429-.429Zm0,3.429a.43.43,0,0,1,.429-.429H27a.43.43,0,0,1,.429.429v.857a.43.43,0,0,1-.429.429H19.286a.43.43,0,0,1-.429-.429Zm0,3.429a.43.43,0,0,1,.429-.429H27a.43.43,0,0,1,.429.429v.857a.43.43,0,0,1-.429.429H19.286a.43.43,0,0,1-.429-.429ZM9.429,10.821A3.429,3.429,0,1,1,6,14.25,3.432,3.432,0,0,1,9.429,10.821ZM3.595,21.761a3.433,3.433,0,0,1,3.263-2.368H7.3a5.518,5.518,0,0,0,4.264,0H12a3.433,3.433,0,0,1,3.263,2.368.844.844,0,0,1-.836,1.061h-10A.846.846,0,0,1,3.595,21.761Z" transform="translate(0 -2.25)" fill="#24b151"/>
</svg>
