<svg xmlns="http://www.w3.org/2000/svg" width="32.95" height="26.762" viewBox="0 0 32.95 26.762">
  <path id="Icon_awesome-twitter" data-name="Icon awesome-twitter" d="M29.563,10.05c.021.293.021.585.021.878,0,8.928-6.795,19.214-19.214,19.214A19.084,19.084,0,0,1,0,27.111a13.97,13.97,0,0,0,1.631.084,13.525,13.525,0,0,0,8.384-2.885A6.765,6.765,0,0,1,3.7,19.626a8.516,8.516,0,0,0,1.275.1,7.142,7.142,0,0,0,1.777-.23,6.754,6.754,0,0,1-5.415-6.628v-.084a6.8,6.8,0,0,0,3.052.857A6.763,6.763,0,0,1,2.3,4.614a19.2,19.2,0,0,0,13.925,7.067,7.623,7.623,0,0,1-.167-1.547A6.76,6.76,0,0,1,27.744,5.513a13.3,13.3,0,0,0,4.286-1.631A6.735,6.735,0,0,1,29.062,7.6,13.538,13.538,0,0,0,32.95,6.559a14.517,14.517,0,0,1-3.387,3.492Z" transform="translate(0 -3.381)" fill="#fff"/>
</svg>
