<svg xmlns="http://www.w3.org/2000/svg" width="28.832" height="28.832" viewBox="0 0 28.832 28.832">
  <path id="Icon_ionic-logo-whatsapp" data-name="Icon ionic-logo-whatsapp" d="M16.927,2.25A14.1,14.1,0,0,0,2.773,16.295,13.9,13.9,0,0,0,4.8,23.547L2.25,31.082l7.836-2.489a14.178,14.178,0,0,0,21-12.3A14.1,14.1,0,0,0,16.927,2.25Zm7.038,19.378a3.656,3.656,0,0,1-2.5,1.614c-.664.035-.683.514-4.3-1.058s-5.8-5.4-5.967-5.642A6.941,6.941,0,0,1,9.858,12.78a4.011,4.011,0,0,1,1.377-2.943,1.386,1.386,0,0,1,.98-.413c.285,0,.47-.008.68,0s.527-.044.8.685.93,2.52,1.013,2.7a.656.656,0,0,1,.007.629,2.458,2.458,0,0,1-.384.585c-.189.2-.4.453-.566.608-.188.172-.384.359-.187.725A10.831,10.831,0,0,0,15.5,17.915,9.875,9.875,0,0,0,18.336,19.8c.355.193.567.172.787-.06s.942-1.013,1.2-1.362.493-.281.82-.15,2.07,1.065,2.425,1.258.592.291.676.444A2.972,2.972,0,0,1,23.965,21.628Z" transform="translate(-2.25 -2.25)" fill="#fff"/>
</svg>
